PathFileType	4	(X/Y/Z)	pose_F01_0-96.trc
DataRate	CameraRate	NumFrames	NumMarkers	Units	OrigDataRate	OrigDataStartFrame	OrigNumFrames
30	30	5	21	m	30	24	96
Frame#	Time	CHip			RHip			RKnee			RAnkle			RBigToe			RSmallToe			RHeel			LHip			LKnee			LAnkle			LBigToe			LSmallToe			LHeel			Neck			Nose			RShoulder			RElbow			RWrist			LShoulder			LElbow			LWrist			
		X1	Y1	Z1	X2	Y2	Z2	X3	Y3	Z3	X4	Y4	Z4	X5	Y5	Z5	X6	Y6	Z6	X7	Y7	Z7	X8	Y8	Z8	X9	Y9	Z9	X10	Y10	Z10	X11	Y11	Z11	X12	Y12	Z12	X13	Y13	Z13	X14	Y14	Z14	X15	Y15	Z15	X16	Y16	Z16	X17	Y17	Z17	X18	Y18	Z18	X19	Y19	Z19	X20	Y20	Z20	X21	Y21	Z21	
24	0.8	-0.21136169979177294	1.878686619306441	-0.5492059413384589	-0.2232744689903694	1.8741756869055777	-0.47899655207667796	-0.20806312289672732	1.7280290083965815	-0.476227624055251	-0.20849789108111758	1.5831444696465156	-0.4585370381253509	-0.24056431728215788	1.5420760937238331	-0.42011701530525863	-0.24531590419069169	1.5736411494756186	-0.39387929191225246	-0.203112481677136	1.5727261022724626	-0.472439794604055	-0.19796698327350268	1.881866917095964	-0.6191731378893941	-0.19157813130879428	1.728139588370937	-0.607894027822989	-0.19070254063627817	1.5787540780454126	-0.583619783298423	-0.2177780523711852	1.5314841870489286	-0.5843805012823986	-0.2082041380450652	1.5378591733523292	-0.6077394819419294	-0.18666163961923682	1.5663367103641785	-0.5688352869426148	-0.2057642918032008	2.0513177527422704	-0.5647822266862267	-0.22837298175104978	2.121063095920878	-0.5510465571689697	-0.21973401788785538	2.0468972546104798	-0.4691580344454688	-0.22025688380779024	1.9583012125227564	-0.4297652921405894	-0.22624470693513335	1.8781528051620624	-0.36914974441546444	-0.18693905635131916	2.058197444202551	-0.6623913721883747	-0.1781709817899431	1.9690605990853303	-0.6906381858807035	-0.17452988551530307	1.8864338215839627	-0.7186039214390418
25	0.8333333333333334	-0.20847565137379223	1.876111930661046	-0.547947135683091	-0.2213686299225996	1.874192344457681	-0.48107384796495684	-0.21033685241961356	1.7253311726025014	-0.4733868535505796	-0.20935252125253967	1.5819561379210687	-0.46204055543385864	-0.2408629325200474	1.5437972695816657	-0.41990043192472065	-0.24531590419069169	1.5736411494756186	-0.39387929191225246	-0.20586577175024812	1.5713889143557696	-0.47384869469051666	-0.19605875625802355	1.8782111302967883	-0.6208317082419108	-0.19182221448192108	1.7242689109185343	-0.6071559654918104	-0.1918763586925214	1.5773670547037135	-0.5861914239948941	-0.21952084228469368	1.532380951552611	-0.5828928557669641	-0.21030733805351803	1.5376928662231018	-0.6055965206262608	-0.18703725714358077	1.5627365811892764	-0.5679918515538768	-0.20576375825670826	2.051300253096676	-0.564735359312338	-0.2283726846705384	2.1210383640042783	-0.5510846718476466	-0.21987151325536516	2.047060924193499	-0.4697878372439864	-0.2202396976309547	1.9581273336901475	-0.42965498682247466	-0.22835945470396476	1.878463851309464	-0.36711183777012363	-0.18694390785949974	2.058108932532576	-0.6623005359137805	-0.17823097292292672	1.9666459791126374	-0.6901382523999242	-0.17586698548615726	1.882227355719665	-0.7125158259344965
26	0.8666666666666667	-0.2085443428076341	1.876152842266333	-0.5478865875805142	-0.22230249650060366	1.8740767031175591	-0.4757986231970915	-0.20919889001070396	1.723962507948715	-0.47003376211222436	-0.21009486306270078	1.5807667960856782	-0.4569262403946515	-0.24046665440458825	1.541785304544246	-0.4199902305946601	-0.24531590419069169	1.5736411494756186	-0.39387929191225246	-0.2036097034459413	1.5695018690917912	-0.476248572621904	-0.19609992450698302	1.8807624215319265	-0.6211434413927369	-0.19368317796013193	1.7253707539717658	-0.6052764579690458	-0.19176053055904393	1.577304200368797	-0.5862767958092413	-0.21829161864845245	1.530846122136297	-0.5799436475108958	-0.20914500596416602	1.5377777980173841	-0.6108444610619705	-0.18476873179477804	1.5651872312937274	-0.5705047095094615	-0.20575863928187882	2.051289827617903	-0.5647759244581647	-0.22926499120807733	2.1210748990828594	-0.5539376108777143	-0.2217556681803128	2.0469002725413845	-0.46766794086214514	-0.22108493403767798	1.9595030481001492	-0.43293872109295806	-0.22920589073962955	1.8821647180395855	-0.3710271319058129	-0.1868509753754243	2.0569693292354208	-0.6620171207959168	-0.18039122286541653	1.9629448635324993	-0.6871754909387998	-0.17715482262029014	1.87612244591335	-0.7057768685756328
27	0.9	-0.2086193000943806	1.8775428071721694	-0.5481011335005371	-0.2223904706120187	1.8754144619515354	-0.47608513342976266	-0.20934112963877452	1.7253152265222038	-0.47004598305835976	-0.21007503486496054	1.5805439837373498	-0.45698743833730027	-0.24007037628912908	1.5397733395068263	-0.42008002926459964	-0.24531590419069169	1.5736411494756186	-0.39387929191225246	-0.20573012886325578	1.5706199879829899	-0.47386535855934225	-0.19832942523062566	1.8808846125468517	-0.6190028236129268	-0.19284199683595452	1.7280857416569566	-0.6024820089990398	-0.1910159028793066	1.577657766603964	-0.5830490191346805	-0.21540621372350538	1.5301235570293217	-0.586921131595138	-0.20606767079996108	1.537946390585822	-0.6099805509634239	-0.18890979086653786	1.5668851868289584	-0.5665634141501463	-0.20573468524866173	2.0512840747923065	-0.5647809864855247	-0.22838873807994284	2.120955234255631	-0.5510225493431523	-0.21877166462159356	2.0467591011851973	-0.46615248480488275	-0.2192987163229971	1.955529787422216	-0.43419735279517674	-0.22833734142560153	1.8766619211607147	-0.37548770752714183	-0.18699489248424622	2.056999327389715	-0.6624957864068394	-0.1775442786691033	1.9640053088496643	-0.686688356669825	-0.17895258200678774	1.8766997416203917	-0.700654035001355
28	0.9333333333333333	-0.21035695661211382	1.8797481137895906	-0.5461494062506144	-0.22221237525879425	1.875285843917206	-0.47593732058849103	-0.2091848330385502	1.726619119645219	-0.47034627652216915	-0.20928878648154933	1.5822513381347385	-0.45328906813927905	-0.24007575405665144	1.5421913943364696	-0.42068227628764443	-0.24531590419069169	1.5736411494756186	-0.39387929191225246	-0.20493431220890923	1.5716357971503476	-0.4704602380174419	-0.19800177946692638	1.881852999417499	-0.6189682401496012	-0.1925987823476923	1.7291785796639974	-0.6027619745162375	-0.19189034407661196	1.5773686518006917	-0.586182289138342	-0.2196986842056317	1.5329639048288355	-0.58274195937478	-0.21034003210452787	1.537707088075296	-0.6055427414901935	-0.18704005032436702	1.562876273500492	-0.568040466529545	-0.20571252687989827	2.0512870050583225	-0.5648199919438628	-0.22931103000185613	2.119609168468585	-0.553314372281206	-0.21968222345797847	2.046907850496875	-0.46921943430554786	-0.2202192327337287	1.9541480291763196	-0.43708045295707887	-0.227818234402071	1.8670179037143182	-0.38238726412187124	-0.1869631213172841	2.0557183356287405	-0.6619842747479282	-0.18176986064653647	1.963906040397339	-0.6819655037093891	-0.18109187759706685	1.8779676472123434	-0.6985159689540903
